%TF.GenerationSoftware,KiCad,Pcbnew,(5.1.7)-1*%
%TF.CreationDate,2020-11-03T16:06:53+11:00*%
%TF.ProjectId,physbryk_power_supply,70687973-6272-4796-9b5f-706f7765725f,0.0.1*%
%TF.SameCoordinates,Original*%
%TF.FileFunction,Soldermask,Top*%
%TF.FilePolarity,Negative*%
%FSLAX46Y46*%
G04 Gerber Fmt 4.6, Leading zero omitted, Abs format (unit mm)*
G04 Created by KiCad (PCBNEW (5.1.7)-1) date 2020-11-03 16:06:53*
%MOMM*%
%LPD*%
G01*
G04 APERTURE LIST*
%ADD10C,3.911600*%
%ADD11C,2.300000*%
%ADD12C,10.160000*%
%ADD13C,1.600000*%
%ADD14O,1.600000X1.600000*%
%ADD15R,1.905000X2.000000*%
%ADD16O,1.905000X2.000000*%
G04 APERTURE END LIST*
D10*
%TO.C,P?*%
X171450000Y-114300000D03*
%TD*%
%TO.C,P?*%
X128270000Y-114300000D03*
%TD*%
%TO.C,P?*%
X171450000Y-49530000D03*
%TD*%
%TO.C,P?*%
X128270000Y-49530000D03*
%TD*%
%TO.C,BT1*%
G36*
G01*
X161410000Y-98690000D02*
X161410000Y-96890000D01*
G75*
G02*
X161660000Y-96640000I250000J0D01*
G01*
X163460000Y-96640000D01*
G75*
G02*
X163710000Y-96890000I0J-250000D01*
G01*
X163710000Y-98690000D01*
G75*
G02*
X163460000Y-98940000I-250000J0D01*
G01*
X161660000Y-98940000D01*
G75*
G02*
X161410000Y-98690000I0J250000D01*
G01*
G37*
D11*
X167360000Y-97790000D03*
%TD*%
D12*
%TO.C,H1*%
X134620000Y-64770000D03*
%TD*%
%TO.C,H2*%
X165100000Y-64770000D03*
%TD*%
D13*
%TO.C,R1*%
X137160000Y-107950000D03*
D14*
X144780000Y-107950000D03*
%TD*%
D15*
%TO.C,U1*%
X129540000Y-99060000D03*
D16*
X132080000Y-99060000D03*
X134620000Y-99060000D03*
%TD*%
%TO.C,RV1*%
G36*
G01*
X161170000Y-110860000D02*
X161170000Y-112660000D01*
G75*
G02*
X160920000Y-112910000I-250000J0D01*
G01*
X159120000Y-112910000D01*
G75*
G02*
X158870000Y-112660000I0J250000D01*
G01*
X158870000Y-110860000D01*
G75*
G02*
X159120000Y-110610000I250000J0D01*
G01*
X160920000Y-110610000D01*
G75*
G02*
X161170000Y-110860000I0J-250000D01*
G01*
G37*
D11*
X155220000Y-111760000D03*
X150420000Y-111760000D03*
%TD*%
%TO.C,MES1*%
G36*
G01*
X161170000Y-103240000D02*
X161170000Y-105040000D01*
G75*
G02*
X160920000Y-105290000I-250000J0D01*
G01*
X159120000Y-105290000D01*
G75*
G02*
X158870000Y-105040000I0J250000D01*
G01*
X158870000Y-103240000D01*
G75*
G02*
X159120000Y-102990000I250000J0D01*
G01*
X160920000Y-102990000D01*
G75*
G02*
X161170000Y-103240000I0J-250000D01*
G01*
G37*
X155220000Y-104140000D03*
X150420000Y-104140000D03*
%TD*%
M02*
