M48
; DRILL file {KiCad (5.1.7)-1} date 11/03/20 10:16:28
; FORMAT={-:-/ absolute / inch / decimal}
; #@! TF.CreationDate,2020-11-03T10:16:28+11:00
; #@! TF.GenerationSoftware,Kicad,Pcbnew,(5.1.7)-1
FMAT,2
INCH
T1C0.0295
T2C0.0315
T3C0.0394
T4C0.0984
T5C0.1000
%
G90
G05
T1
X6.6Y-4.0138
X6.6Y-4.0925
X6.6Y-4.1713
X6.6Y-4.25
T2
X4.95Y-4.05
X4.95Y-4.15
X4.95Y-4.25
T3
X5.0965Y-4.434
X5.1965Y-4.434
X5.2965Y-4.434
X5.3965Y-4.434
X5.4965Y-4.434
X5.5965Y-4.434
X5.6965Y-4.434
X5.7965Y-4.434
X5.8965Y-4.434
X5.9965Y-4.434
X6.0965Y-4.434
X6.1965Y-4.434
X6.2965Y-4.434
X6.3965Y-4.434
X6.4965Y-4.434
X6.5965Y-4.434
X5.4965Y-3.834
X5.5965Y-3.834
X5.6965Y-3.834
X5.7965Y-3.834
X5.8965Y-3.834
X5.9965Y-3.834
X6.0965Y-3.834
X6.1965Y-3.834
X6.2965Y-3.834
X6.3965Y-3.834
X6.4965Y-3.834
X6.5965Y-3.834
X5.0965Y-4.534
X5.1965Y-4.534
X5.2965Y-4.534
X5.3965Y-4.534
X5.4965Y-3.734
X5.4965Y-4.534
X5.5965Y-3.734
X5.5965Y-4.534
X5.6965Y-3.734
X5.6965Y-4.534
X5.7965Y-3.734
X5.7965Y-4.534
X5.8965Y-3.734
X5.8965Y-4.534
X5.9965Y-3.734
X5.9965Y-4.534
X6.0965Y-3.734
X6.0965Y-4.534
X6.1965Y-3.734
X6.1965Y-4.534
X6.2965Y-3.734
X6.2965Y-4.534
X6.3965Y-3.734
X6.3965Y-4.534
X6.4965Y-3.734
X6.4965Y-4.534
X6.5965Y-3.734
X6.5965Y-4.534
T4
X4.9465Y-3.784
X4.9465Y-4.484
T5
X6.7465Y-3.784
X6.7465Y-4.484
T0
M30
