%TF.GenerationSoftware,KiCad,Pcbnew,(5.1.7)-1*%
%TF.CreationDate,2020-11-03T10:24:41+11:00*%
%TF.ProjectId,physbryk_feather,70687973-6272-4796-9b5f-666561746865,rev?*%
%TF.SameCoordinates,Original*%
%TF.FileFunction,Soldermask,Bot*%
%TF.FilePolarity,Negative*%
%FSLAX46Y46*%
G04 Gerber Fmt 4.6, Leading zero omitted, Abs format (unit mm)*
G04 Created by KiCad (PCBNEW (5.1.7)-1) date 2020-11-03 10:24:41*
%MOMM*%
%LPD*%
G01*
G04 APERTURE LIST*
%ADD10C,0.609600*%
%ADD11O,1.750000X1.200000*%
%ADD12C,1.879600*%
%ADD13C,3.911600*%
%ADD14C,2.540000*%
%ADD15C,2.032000*%
%ADD16O,2.000000X1.200000*%
G04 APERTURE END LIST*
D10*
X129451100Y-115163600D02*
X129451100Y-112623600D01*
X131991100Y-115163600D02*
X131991100Y-112623600D01*
X134531100Y-112623600D02*
X134531100Y-115163600D01*
X137071100Y-115417600D02*
X137071100Y-112623600D01*
X139611100Y-112623600D02*
X139611100Y-115163600D01*
X142151100Y-112623600D02*
X142151100Y-115163600D01*
X144691100Y-115163600D02*
X144691100Y-112623600D01*
X147231100Y-112623600D02*
X147231100Y-115163600D01*
X149771100Y-112623600D02*
X149771100Y-115163600D01*
X152311100Y-112369600D02*
X152311100Y-115163600D01*
X154851100Y-112623600D02*
X154851100Y-115163600D01*
X162471100Y-112623600D02*
X162471100Y-115163600D01*
X165011100Y-115163600D02*
X165011100Y-112623600D01*
X167551100Y-112623600D02*
X167551100Y-115163600D01*
X159931100Y-115163600D02*
X159931100Y-112623600D01*
X157391100Y-112623600D02*
X157391100Y-115163600D01*
X167551100Y-97383600D02*
X167551100Y-94843600D01*
X165011100Y-94843600D02*
X165011100Y-97129600D01*
X162471100Y-97383600D02*
X162471100Y-94589600D01*
X159931100Y-94843600D02*
X159931100Y-97383600D01*
X157391100Y-97637600D02*
X157391100Y-94589600D01*
X154851100Y-97383600D02*
X154851100Y-94843600D01*
X152311100Y-94589600D02*
X152311100Y-97383600D01*
X149771100Y-94589600D02*
X149771100Y-97383600D01*
X147231100Y-97383600D02*
X147231100Y-94589600D01*
X144691100Y-94589600D02*
X144691100Y-97383600D01*
X142151100Y-97637600D02*
X142151100Y-94589600D01*
X139611100Y-94589600D02*
X139611100Y-97383600D01*
D11*
%TO.C,J1*%
X167640000Y-101950000D03*
X167640000Y-103950000D03*
X167640000Y-105950000D03*
G36*
G01*
X168265001Y-108550000D02*
X167014999Y-108550000D01*
G75*
G02*
X166765000Y-108300001I0J249999D01*
G01*
X166765000Y-107599999D01*
G75*
G02*
X167014999Y-107350000I249999J0D01*
G01*
X168265001Y-107350000D01*
G75*
G02*
X168515000Y-107599999I0J-249999D01*
G01*
X168515000Y-108300001D01*
G75*
G02*
X168265001Y-108550000I-249999J0D01*
G01*
G37*
%TD*%
D12*
%TO.C,MS1*%
X129451100Y-115163600D03*
X131991100Y-115163600D03*
X134531100Y-115163600D03*
X137071100Y-115163600D03*
X167551100Y-115163600D03*
X165011100Y-115163600D03*
X162471100Y-115163600D03*
X159931100Y-115163600D03*
X157391100Y-115163600D03*
X154851100Y-115163600D03*
X152311100Y-115163600D03*
X149771100Y-115163600D03*
X147231100Y-115163600D03*
X144691100Y-115163600D03*
X142151100Y-115163600D03*
X139611100Y-115163600D03*
X167551100Y-94843600D03*
X165011100Y-94843600D03*
X162471100Y-94843600D03*
X159931100Y-94843600D03*
X157391100Y-94843600D03*
X154851100Y-94843600D03*
X152311100Y-94843600D03*
X149771100Y-94843600D03*
X147231100Y-94843600D03*
X144691100Y-94843600D03*
X142151100Y-94843600D03*
X139611100Y-94843600D03*
D13*
X125641100Y-113893600D03*
X125641100Y-96113600D03*
D14*
X171361100Y-113893600D03*
X171361100Y-96113600D03*
%TD*%
D15*
%TO.C,JP3*%
X129451100Y-112623600D03*
X131991100Y-112623600D03*
X134531100Y-112623600D03*
X137071100Y-112623600D03*
X139611100Y-112623600D03*
X142151100Y-112623600D03*
X144691100Y-112623600D03*
X147231100Y-112623600D03*
X149771100Y-112623600D03*
X152311100Y-112623600D03*
X154851100Y-112623600D03*
X157391100Y-112623600D03*
X159931100Y-112623600D03*
X162471100Y-112623600D03*
X165011100Y-112623600D03*
X167551100Y-112623600D03*
%TD*%
%TO.C,JP1*%
X167551100Y-97383600D03*
X165011100Y-97383600D03*
X162471100Y-97383600D03*
X159931100Y-97383600D03*
X157391100Y-97383600D03*
X154851100Y-97383600D03*
X152311100Y-97383600D03*
X149771100Y-97383600D03*
X147231100Y-97383600D03*
X144691100Y-97383600D03*
X142151100Y-97383600D03*
X139611100Y-97383600D03*
%TD*%
D16*
%TO.C,SW1*%
X125730000Y-102870000D03*
X125730000Y-105410000D03*
X125730000Y-107950000D03*
%TD*%
M02*
