%TF.GenerationSoftware,KiCad,Pcbnew,(5.1.7)-1*%
%TF.CreationDate,2020-11-04T10:18:24+11:00*%
%TF.ProjectId,physbryk_feather,70687973-6272-4796-9b5f-666561746865,rev?*%
%TF.SameCoordinates,Original*%
%TF.FileFunction,Copper,L2,Bot*%
%TF.FilePolarity,Positive*%
%FSLAX46Y46*%
G04 Gerber Fmt 4.6, Leading zero omitted, Abs format (unit mm)*
G04 Created by KiCad (PCBNEW (5.1.7)-1) date 2020-11-04 10:18:24*
%MOMM*%
%LPD*%
G01*
G04 APERTURE LIST*
%TA.AperFunction,ComponentPad*%
%ADD10O,1.750000X1.200000*%
%TD*%
%TA.AperFunction,ComponentPad*%
%ADD11C,1.778000*%
%TD*%
%TA.AperFunction,ComponentPad*%
%ADD12C,3.810000*%
%TD*%
%TA.AperFunction,ComponentPad*%
%ADD13C,1.930400*%
%TD*%
%TA.AperFunction,ComponentPad*%
%ADD14O,2.000000X1.200000*%
%TD*%
%TA.AperFunction,Conductor*%
%ADD15C,0.406400*%
%TD*%
%TA.AperFunction,Conductor*%
%ADD16C,0.250000*%
%TD*%
%TA.AperFunction,Conductor*%
%ADD17C,0.609600*%
%TD*%
G04 APERTURE END LIST*
D10*
%TO.P,J1,4*%
%TO.N,Net-(J1-Pad4)*%
X167640000Y-101950000D03*
%TO.P,J1,3*%
%TO.N,Net-(J1-Pad3)*%
X167640000Y-103950000D03*
%TO.P,J1,2*%
%TO.N,Net-(J1-Pad2)*%
X167640000Y-105950000D03*
%TO.P,J1,1*%
%TO.N,Net-(J1-Pad1)*%
%TA.AperFunction,ComponentPad*%
G36*
G01*
X168265001Y-108550000D02*
X167014999Y-108550000D01*
G75*
G02*
X166765000Y-108300001I0J249999D01*
G01*
X166765000Y-107599999D01*
G75*
G02*
X167014999Y-107350000I249999J0D01*
G01*
X168265001Y-107350000D01*
G75*
G02*
X168515000Y-107599999I0J-249999D01*
G01*
X168515000Y-108300001D01*
G75*
G02*
X168265001Y-108550000I-249999J0D01*
G01*
G37*
%TD.AperFunction*%
%TD*%
D11*
%TO.P,MS1,1*%
%TO.N,Net-(JP3-Pad16)*%
X129451100Y-115163600D03*
%TO.P,MS1,2*%
%TO.N,Net-(J1-Pad3)*%
X131991100Y-115163600D03*
%TO.P,MS1,3*%
%TO.N,Net-(JP3-Pad14)*%
X134531100Y-115163600D03*
%TO.P,MS1,4*%
%TO.N,Net-(J1-Pad4)*%
X137071100Y-115163600D03*
%TO.P,MS1,16*%
%TO.N,Net-(JP3-Pad1)*%
X167551100Y-115163600D03*
%TO.P,MS1,15*%
%TO.N,Net-(JP3-Pad2)*%
X165011100Y-115163600D03*
%TO.P,MS1,14*%
%TO.N,Net-(JP3-Pad3)*%
X162471100Y-115163600D03*
%TO.P,MS1,13*%
%TO.N,Net-(JP3-Pad4)*%
X159931100Y-115163600D03*
%TO.P,MS1,12*%
%TO.N,Net-(JP3-Pad5)*%
X157391100Y-115163600D03*
%TO.P,MS1,11*%
%TO.N,Net-(JP3-Pad6)*%
X154851100Y-115163600D03*
%TO.P,MS1,10*%
%TO.N,Net-(JP3-Pad7)*%
X152311100Y-115163600D03*
%TO.P,MS1,9*%
%TO.N,Net-(JP3-Pad8)*%
X149771100Y-115163600D03*
%TO.P,MS1,8*%
%TO.N,Net-(JP3-Pad9)*%
X147231100Y-115163600D03*
%TO.P,MS1,7*%
%TO.N,Net-(JP3-Pad10)*%
X144691100Y-115163600D03*
%TO.P,MS1,6*%
%TO.N,Net-(JP3-Pad11)*%
X142151100Y-115163600D03*
%TO.P,MS1,5*%
%TO.N,Net-(JP3-Pad12)*%
X139611100Y-115163600D03*
%TO.P,MS1,17*%
%TO.N,Net-(J1-Pad2)*%
X167551100Y-94843600D03*
%TO.P,MS1,18*%
%TO.N,Net-(J1-Pad1)*%
X165011100Y-94843600D03*
%TO.P,MS1,19*%
%TO.N,Net-(JP1-Pad10)*%
X162471100Y-94843600D03*
%TO.P,MS1,20*%
%TO.N,Net-(JP1-Pad9)*%
X159931100Y-94843600D03*
%TO.P,MS1,21*%
%TO.N,Net-(JP1-Pad8)*%
X157391100Y-94843600D03*
%TO.P,MS1,22*%
%TO.N,Net-(JP1-Pad7)*%
X154851100Y-94843600D03*
%TO.P,MS1,23*%
%TO.N,Net-(JP1-Pad6)*%
X152311100Y-94843600D03*
%TO.P,MS1,24*%
%TO.N,Net-(JP1-Pad5)*%
X149771100Y-94843600D03*
%TO.P,MS1,25*%
%TO.N,Net-(JP1-Pad4)*%
X147231100Y-94843600D03*
%TO.P,MS1,26*%
%TO.N,Net-(JP1-Pad3)*%
X144691100Y-94843600D03*
%TO.P,MS1,27*%
%TO.N,Net-(JP1-Pad2)*%
X142151100Y-94843600D03*
%TO.P,MS1,28*%
%TO.N,Net-(JP1-Pad1)*%
X139611100Y-94843600D03*
D12*
%TO.P,MS1,P$2*%
%TO.N,N/C*%
X125641100Y-113893600D03*
%TO.P,MS1,P$1*%
X125641100Y-96113600D03*
%TD*%
D13*
%TO.P,JP3,16*%
%TO.N,Net-(JP3-Pad16)*%
X129451100Y-112623600D03*
%TO.P,JP3,15*%
%TO.N,Net-(J1-Pad3)*%
X131991100Y-112623600D03*
%TO.P,JP3,14*%
%TO.N,Net-(JP3-Pad14)*%
X134531100Y-112623600D03*
%TO.P,JP3,13*%
%TO.N,Net-(J1-Pad4)*%
X137071100Y-112623600D03*
%TO.P,JP3,12*%
%TO.N,Net-(JP3-Pad12)*%
X139611100Y-112623600D03*
%TO.P,JP3,11*%
%TO.N,Net-(JP3-Pad11)*%
X142151100Y-112623600D03*
%TO.P,JP3,10*%
%TO.N,Net-(JP3-Pad10)*%
X144691100Y-112623600D03*
%TO.P,JP3,9*%
%TO.N,Net-(JP3-Pad9)*%
X147231100Y-112623600D03*
%TO.P,JP3,8*%
%TO.N,Net-(JP3-Pad8)*%
X149771100Y-112623600D03*
%TO.P,JP3,7*%
%TO.N,Net-(JP3-Pad7)*%
X152311100Y-112623600D03*
%TO.P,JP3,6*%
%TO.N,Net-(JP3-Pad6)*%
X154851100Y-112623600D03*
%TO.P,JP3,5*%
%TO.N,Net-(JP3-Pad5)*%
X157391100Y-112623600D03*
%TO.P,JP3,4*%
%TO.N,Net-(JP3-Pad4)*%
X159931100Y-112623600D03*
%TO.P,JP3,3*%
%TO.N,Net-(JP3-Pad3)*%
X162471100Y-112623600D03*
%TO.P,JP3,2*%
%TO.N,Net-(JP3-Pad2)*%
X165011100Y-112623600D03*
%TO.P,JP3,1*%
%TO.N,Net-(JP3-Pad1)*%
X167551100Y-112623600D03*
%TD*%
%TO.P,JP1,12*%
%TO.N,Net-(J1-Pad2)*%
X167551100Y-97383600D03*
%TO.P,JP1,11*%
%TO.N,Net-(J1-Pad1)*%
X165011100Y-97383600D03*
%TO.P,JP1,10*%
%TO.N,Net-(JP1-Pad10)*%
X162471100Y-97383600D03*
%TO.P,JP1,9*%
%TO.N,Net-(JP1-Pad9)*%
X159931100Y-97383600D03*
%TO.P,JP1,8*%
%TO.N,Net-(JP1-Pad8)*%
X157391100Y-97383600D03*
%TO.P,JP1,7*%
%TO.N,Net-(JP1-Pad7)*%
X154851100Y-97383600D03*
%TO.P,JP1,6*%
%TO.N,Net-(JP1-Pad6)*%
X152311100Y-97383600D03*
%TO.P,JP1,5*%
%TO.N,Net-(JP1-Pad5)*%
X149771100Y-97383600D03*
%TO.P,JP1,4*%
%TO.N,Net-(JP1-Pad4)*%
X147231100Y-97383600D03*
%TO.P,JP1,3*%
%TO.N,Net-(JP1-Pad3)*%
X144691100Y-97383600D03*
%TO.P,JP1,2*%
%TO.N,Net-(JP1-Pad2)*%
X142151100Y-97383600D03*
%TO.P,JP1,1*%
%TO.N,Net-(JP1-Pad1)*%
X139611100Y-97383600D03*
%TD*%
D14*
%TO.P,SW1,1*%
%TO.N,Net-(JP1-Pad2)*%
X125730000Y-102870000D03*
%TO.P,SW1,2*%
%TO.N,Net-(J1-Pad4)*%
X125730000Y-105410000D03*
%TO.P,SW1,3*%
%TO.N,Net-(SW1-Pad3)*%
X125730000Y-107950000D03*
%TD*%
D15*
%TO.N,Net-(JP3-Pad16)*%
X129451100Y-115163600D02*
X129451100Y-112623600D01*
%TO.N,Net-(JP3-Pad1)*%
X167551100Y-112623600D02*
X167551100Y-115163600D01*
%TO.N,Net-(JP3-Pad2)*%
X165011100Y-115163600D02*
X165011100Y-112623600D01*
%TO.N,Net-(JP3-Pad3)*%
X162471100Y-112623600D02*
X162471100Y-115163600D01*
%TO.N,Net-(JP3-Pad4)*%
X159931100Y-112623600D02*
X159931100Y-115163600D01*
%TO.N,Net-(JP3-Pad5)*%
X157391100Y-115163600D02*
X157391100Y-112623600D01*
%TO.N,Net-(JP3-Pad6)*%
X154851100Y-112623600D02*
X154851100Y-115163600D01*
%TO.N,Net-(JP3-Pad7)*%
X152311100Y-115163600D02*
X152311100Y-112623600D01*
%TO.N,Net-(JP3-Pad8)*%
X149771100Y-112623600D02*
X149771100Y-115163600D01*
%TO.N,Net-(JP3-Pad9)*%
X147231100Y-115163600D02*
X147231100Y-112623600D01*
%TO.N,Net-(JP3-Pad10)*%
X144691100Y-112623600D02*
X144691100Y-115163600D01*
%TO.N,Net-(JP3-Pad11)*%
X142151100Y-115163600D02*
X142151100Y-112623600D01*
%TO.N,Net-(JP3-Pad12)*%
X139611100Y-112623600D02*
X139611100Y-115163600D01*
%TO.N,Net-(JP1-Pad10)*%
X162471100Y-97383600D02*
X162471100Y-94843600D01*
%TO.N,Net-(JP1-Pad9)*%
X159931100Y-94843600D02*
X159931100Y-97383600D01*
%TO.N,Net-(JP1-Pad8)*%
X157391100Y-97383600D02*
X157391100Y-94843600D01*
%TO.N,Net-(JP1-Pad7)*%
X154851100Y-94843600D02*
X154851100Y-97383600D01*
%TO.N,Net-(JP1-Pad6)*%
X152311100Y-97383600D02*
X152311100Y-94843600D01*
%TO.N,Net-(JP1-Pad5)*%
X149771100Y-94843600D02*
X149771100Y-97383600D01*
%TO.N,Net-(JP1-Pad4)*%
X147231100Y-97383600D02*
X147231100Y-94843600D01*
%TO.N,Net-(JP1-Pad3)*%
X144691100Y-94843600D02*
X144691100Y-97383600D01*
%TO.N,Net-(JP1-Pad2)*%
X142151100Y-97383600D02*
X142151100Y-94843600D01*
%TO.N,Net-(JP1-Pad1)*%
X139611100Y-94843600D02*
X139611100Y-97383600D01*
%TO.N,Net-(J1-Pad2)*%
X167551100Y-94843600D02*
X167551100Y-97383600D01*
%TO.N,Net-(J1-Pad1)*%
X165011100Y-94843600D02*
X165011100Y-97383600D01*
D16*
X168840010Y-101212510D02*
X165011100Y-97383600D01*
X168840010Y-106749990D02*
X168840010Y-101212510D01*
X167640000Y-107950000D02*
X168840010Y-106749990D01*
D17*
%TO.N,Net-(J1-Pad3)*%
X131991100Y-112623600D02*
X131991100Y-115163600D01*
D16*
X140664700Y-103950000D02*
X131991100Y-112623600D01*
X167640000Y-103950000D02*
X140664700Y-103950000D01*
D17*
%TO.N,Net-(J1-Pad4)*%
X137071100Y-112623600D02*
X137071100Y-115163600D01*
D15*
%TO.N,Net-(JP3-Pad14)*%
X134531100Y-112623600D02*
X134531100Y-115163600D01*
%TD*%
M02*
